<mxfile host="app.diagrams.net" modified="2021-06-08T07:14:56.401Z" agent="5.0 (Macintosh; Intel Mac OS X 10_15_7) AppleWebKit/537.36 (KHTML, like Gecko) Chrome/86.0.4240.193 Safari/537.36" etag="51W2c0eyuKkFSIkIxIcH" version="14.7.6" type="github">
  <diagram id="UVizJaprPjzL4EIiHQp2" name="Page-1">
    <mxGraphModel dx="946" dy="537" grid="1" gridSize="10" guides="1" tooltips="1" connect="1" arrows="1" fold="1" page="1" pageScale="1" pageWidth="827" pageHeight="1169" math="0" shadow="0">
      <root>
        <mxCell id="0" />
        <mxCell id="1" parent="0" />
        <mxCell id="sVcsrZWwfbeTP-_YkK9G-1" style="edgeStyle=orthogonalEdgeStyle;rounded=0;orthogonalLoop=1;jettySize=auto;html=1;exitX=1;exitY=0.5;exitDx=0;exitDy=0;entryX=0;entryY=0.5;entryDx=0;entryDy=0;" edge="1" parent="1" source="sVcsrZWwfbeTP-_YkK9G-2" target="sVcsrZWwfbeTP-_YkK9G-4">
          <mxGeometry relative="1" as="geometry" />
        </mxCell>
        <mxCell id="sVcsrZWwfbeTP-_YkK9G-2" value="缓存页&lt;br&gt;（热数据区域）" style="rounded=1;whiteSpace=wrap;html=1;fillColor=#ffe6cc;strokeColor=#d79b00;" vertex="1" parent="1">
          <mxGeometry x="160" y="190" width="110" height="60" as="geometry" />
        </mxCell>
        <mxCell id="sVcsrZWwfbeTP-_YkK9G-3" style="edgeStyle=orthogonalEdgeStyle;rounded=0;orthogonalLoop=1;jettySize=auto;html=1;exitX=1;exitY=0.5;exitDx=0;exitDy=0;entryX=0;entryY=0.5;entryDx=0;entryDy=0;" edge="1" parent="1" source="sVcsrZWwfbeTP-_YkK9G-4" target="sVcsrZWwfbeTP-_YkK9G-5">
          <mxGeometry relative="1" as="geometry" />
        </mxCell>
        <mxCell id="sVcsrZWwfbeTP-_YkK9G-4" value="缓存页&lt;br&gt;（热数据区域）" style="rounded=1;whiteSpace=wrap;html=1;fillColor=#ffe6cc;strokeColor=#d79b00;" vertex="1" parent="1">
          <mxGeometry x="310" y="190" width="110" height="60" as="geometry" />
        </mxCell>
        <mxCell id="sVcsrZWwfbeTP-_YkK9G-18" style="edgeStyle=orthogonalEdgeStyle;rounded=0;orthogonalLoop=1;jettySize=auto;html=1;exitX=1;exitY=0.5;exitDx=0;exitDy=0;entryX=0;entryY=0.5;entryDx=0;entryDy=0;" edge="1" parent="1" source="sVcsrZWwfbeTP-_YkK9G-5" target="sVcsrZWwfbeTP-_YkK9G-14">
          <mxGeometry relative="1" as="geometry" />
        </mxCell>
        <mxCell id="sVcsrZWwfbeTP-_YkK9G-5" value="缓存页&lt;br&gt;（冷数据区域）" style="rounded=1;whiteSpace=wrap;html=1;fillColor=#dae8fc;strokeColor=#6c8ebf;" vertex="1" parent="1">
          <mxGeometry x="460" y="190" width="110" height="60" as="geometry" />
        </mxCell>
        <mxCell id="sVcsrZWwfbeTP-_YkK9G-6" style="edgeStyle=orthogonalEdgeStyle;rounded=0;orthogonalLoop=1;jettySize=auto;html=1;exitX=0;exitY=0.5;exitDx=0;exitDy=0;entryX=0.5;entryY=0;entryDx=0;entryDy=0;" edge="1" parent="1" source="sVcsrZWwfbeTP-_YkK9G-8" target="sVcsrZWwfbeTP-_YkK9G-2">
          <mxGeometry relative="1" as="geometry" />
        </mxCell>
        <mxCell id="sVcsrZWwfbeTP-_YkK9G-17" style="edgeStyle=orthogonalEdgeStyle;rounded=0;orthogonalLoop=1;jettySize=auto;html=1;exitX=1;exitY=0.5;exitDx=0;exitDy=0;entryX=0.5;entryY=0;entryDx=0;entryDy=0;" edge="1" parent="1" source="sVcsrZWwfbeTP-_YkK9G-8" target="sVcsrZWwfbeTP-_YkK9G-14">
          <mxGeometry relative="1" as="geometry" />
        </mxCell>
        <mxCell id="sVcsrZWwfbeTP-_YkK9G-8" value="LRU链表" style="rounded=1;whiteSpace=wrap;html=1;fillColor=#f5f5f5;strokeColor=#666666;fontColor=#333333;" vertex="1" parent="1">
          <mxGeometry x="390" y="80" width="110" height="60" as="geometry" />
        </mxCell>
        <mxCell id="sVcsrZWwfbeTP-_YkK9G-9" value="头指针" style="text;html=1;strokeColor=none;fillColor=none;align=center;verticalAlign=middle;whiteSpace=wrap;rounded=0;" vertex="1" parent="1">
          <mxGeometry x="290" y="80" width="40" height="20" as="geometry" />
        </mxCell>
        <mxCell id="sVcsrZWwfbeTP-_YkK9G-10" value="尾指针" style="text;html=1;strokeColor=none;fillColor=none;align=center;verticalAlign=middle;whiteSpace=wrap;rounded=0;" vertex="1" parent="1">
          <mxGeometry x="560" y="80" width="40" height="20" as="geometry" />
        </mxCell>
        <mxCell id="sVcsrZWwfbeTP-_YkK9G-14" value="缓存页&lt;br&gt;（冷数据区域）" style="rounded=1;whiteSpace=wrap;html=1;fillColor=#dae8fc;strokeColor=#6c8ebf;" vertex="1" parent="1">
          <mxGeometry x="610" y="190" width="110" height="60" as="geometry" />
        </mxCell>
      </root>
    </mxGraphModel>
  </diagram>
</mxfile>
